<?xml version="1.0" standalone="no"?>
<!DOCTYPE svg PUBLIC "-//W3C//DTD SVG 20010904//EN"
 "http://www.w3.org/TR/2001/REC-SVG-20010904/DTD/svg10.dtd">
<svg version="1.0" xmlns="http://www.w3.org/2000/svg"
 width="200.000000pt" height="200.000000pt" viewBox="0 0 200.000000 200.000000"
 preserveAspectRatio="xMidYMid meet">
<metadata>
Created by potrace 1.11, written by Peter Selinger 2001-2013
</metadata>
<g transform="translate(0.000000,200.000000) scale(0.100000,-0.100000)"
fill="#000000" stroke="none">
<path d="M810 1839 c-82 -21 -215 -81 -283 -128 -81 -56 -187 -174 -245 -274
-28 -48 -79 -192 -88 -249 -66 -420 186 -815 593 -930 114 -32 305 -32 423 1
280 77 496 288 574 561 22 78 27 113 31 210 7 192 -50 356 -187 535 -90 116
-246 219 -405 267 -99 29 -310 33 -413 7z m330 -41 c303 -50 548 -292 614
-605 19 -86 14 -245 -9 -333 -72 -274 -276 -479 -552 -556 -67 -18 -102 -22
-205 -20 -144 3 -217 20 -328 76 -263 132 -418 378 -426 675 -3 130 16 217 71
330 87 179 193 287 360 369 98 48 156 65 255 73 36 3 66 7 68 8 4 4 74 -4 152
-17z"/>
<path d="M657 1575 c-8 -18 -2 -21 48 -29 74 -12 70 13 70 -471 0 -489 4 -463
-76 -474 -30 -4 -43 -11 -45 -24 -1 -11 5 -17 19 -18 92 -2 719 0 722 3 6 6
13 56 20 133 3 39 8 88 11 109 4 26 1 42 -8 47 -25 16 -35 9 -48 -33 -33 -113
-86 -176 -165 -197 -35 -9 -145 -14 -252 -12 l-31 1 0 434 c1 504 -1 491 77
502 41 5 51 10 51 25 0 18 -11 19 -194 19 -161 0 -195 -2 -199 -15z"/>
</g>
</svg>
